<?xml version="1.0" encoding="utf-8"?>
<!-- Generator: Adobe Illustrator 21.1.0, SVG Export Plug-In . SVG Version: 6.00 Build 0)  -->
<svg version="1.1" id="Layer_1" xmlns="http://www.w3.org/2000/svg" xmlns:xlink="http://www.w3.org/1999/xlink" x="0px" y="0px"
	 viewBox="0 0 1000 200" style="enable-background:new 0 0 1000 200;" xml:space="preserve">
<style type="text/css">
	.st0{fill:none;stroke:#231F20;stroke-width:1.3;stroke-miterlimit:10;}
	.st1{fill:none;stroke:#231F20;stroke-width:1.2;stroke-miterlimit:10;}
	.st2{fill:#231F20;}
	.st3{fill:url(#SVGID_1_);}
	.st4{fill:url(#SVGID_2_);}
	.st5{fill:url(#SVGID_3_);}
	.st6{fill:url(#SVGID_4_);}
	.st7{fill:url(#SVGID_5_);}
	.st8{fill:url(#SVGID_6_);}
	.st9{fill:url(#SVGID_7_);}
	.st10{fill:url(#SVGID_8_);}
	.st11{fill:url(#SVGID_9_);}
	.st12{fill:url(#SVGID_10_);}
	.st13{fill:url(#SVGID_11_);}
	.st14{fill:url(#SVGID_12_);}
	.st15{fill:url(#SVGID_13_);}
	.st16{fill:url(#SVGID_14_);}
	.st17{fill:url(#SVGID_15_);}
	.st18{fill:url(#SVGID_16_);}
	.st19{fill:url(#SVGID_17_);}
	.st20{fill:url(#SVGID_18_);}
	.st21{fill:url(#SVGID_19_);}
	.st22{fill:url(#SVGID_20_);}
	.st23{fill:#306BB2;}
	.st24{fill:url(#SVGID_21_);}
	.st25{fill:url(#SVGID_22_);}
	.st26{fill:url(#SVGID_23_);}
	.st27{fill:url(#SVGID_24_);}
	.st28{fill:url(#SVGID_25_);}
	.st29{fill:url(#SVGID_26_);}
	.st30{fill:url(#SVGID_27_);}
	.st31{fill:url(#SVGID_28_);}
	.st32{fill:url(#SVGID_29_);}
	.st33{fill:url(#SVGID_30_);}
	.st34{fill:url(#SVGID_31_);}
	.st35{fill:url(#SVGID_32_);}
	.st36{fill:url(#SVGID_33_);}
	.st37{fill:url(#SVGID_34_);}
	.st38{fill:url(#SVGID_35_);}
	.st39{fill:url(#SVGID_36_);}
	.st40{fill:url(#SVGID_37_);}
	.st41{fill:url(#SVGID_38_);}
	.st42{fill:url(#SVGID_39_);}
	.st43{fill:url(#SVGID_40_);}
	.st44{fill:url(#SVGID_41_);}
	.st45{fill:url(#SVGID_42_);}
	.st46{fill:url(#SVGID_43_);}
	.st47{fill:url(#SVGID_44_);}
	.st48{fill:url(#SVGID_45_);}
	.st49{fill:url(#SVGID_46_);}
	.st50{fill:url(#SVGID_47_);}
	.st51{fill:url(#SVGID_48_);}
	.st52{fill:url(#SVGID_49_);}
	.st53{fill:url(#SVGID_50_);}
	.st54{fill:url(#SVGID_51_);}
	.st55{fill:url(#SVGID_52_);}
	.st56{fill:url(#SVGID_53_);}
	.st57{fill:url(#SVGID_54_);}
	.st58{fill:url(#SVGID_55_);}
	.st59{fill:url(#SVGID_56_);}
	.st60{fill:url(#SVGID_57_);}
	.st61{fill:url(#SVGID_58_);}
	.st62{fill:url(#SVGID_59_);}
	.st63{fill:url(#SVGID_60_);}
</style>
<g>
	<g>
		<path class="st23" d="M618.3,145.2c-2.2,0-3.9,1.8-3.9,3.9c0,2.2,1.8,4,3.9,4h5.3c2,0,3.9,0.8,5.3,2c0.6,0.6,1.2,1.3,1.6,2h0
			c0.7,1.2,1,2.6,1,4c0,4.4-3.6,8-8,8h-5.3c-4.4,0-8-3.6-8-8h4.1c0,2.2,1.8,3.9,3.9,3.9h5.3c2.2,0,3.9-1.8,3.9-3.9
			c0-2-1.5-3.7-3.5-4h-0.5c0,0,0,0,0,0h-5.3h0c-2,0-3.9-0.8-5.3-2.1c-0.7-0.6-1.2-1.3-1.7-2c-0.7-1.2-1-2.5-1-4c0-4.4,3.6-8,8-8h5.3
			c4.4,0,8,3.6,8,8h-4.1c0-2.2-1.8-3.9-3.9-3.9H618.3z"/>
		<path class="st23" d="M655.7,158.3v0.3c0,5.8-4.8,10.6-10.6,10.6c-5.8,0-10.6-4.8-10.6-10.6v-0.3c0-5.8,4.8-10.6,10.6-10.6
			C650.9,147.8,655.7,152.5,655.7,158.3z M638.6,158.3v0.3c0,3.6,2.9,6.5,6.5,6.5c3.6,0,6.5-2.9,6.5-6.5v-0.3c0-3.6-2.9-6.5-6.5-6.5
			C641.5,151.9,638.6,154.8,638.6,158.3z"/>
		<path class="st23" d="M658.5,145.2v-2v-2h4.1v2v2v2.6v7.8v13.7h-4.1v-13.7v-7.8V145.2z"/>
		<path class="st23" d="M669.5,156.3v4.5c0,2.4,2,4.4,4.5,4.4c2.4,0,4.4-2,4.4-4.4v-4.5V149v-1.2h4.1v8.5v4.5v8.5h-4.1V168
			c-1.3,0.8-2.8,1.3-4.4,1.3c-1.6,0-3.2-0.5-4.5-1.3c-2.5-1.5-4.1-4.2-4.1-7.2v-4.5v-8.5h4.1v1.2V156.3z"/>
		<path class="st23" d="M689.4,158.6c0,3.6,2.9,6.5,6.5,6.5c2.1,0,3.9-1,5.1-2.5l3.8,1.7c-1.7,2.7-4.6,4.6-8,4.9v0.5
			c1,0.4,2.4,1.2,2.7,2.6c0.1,0.3,0.1,0.6,0.1,0.9c0,0.6-0.3,1.3-0.8,1.9c-0.5,0.6-1.2,1.2-2.1,1.4c-0.5,0.1-1.1,0.2-1.7,0.2
			c-0.8-0.1-1.9-0.5-2.8-1.1c-0.8-0.6-1.4-1.4-1.7-2.4l2.5-0.6c0.1,0.4,0.4,0.7,0.7,1c0.5,0.4,1.1,0.6,1.5,0.6c0.3,0,0.6,0,0.9-0.1
			c0.4-0.1,0.6-0.3,0.8-0.5c0.8-1-0.8-1.6-1.7-1.8l-0.9-0.3v-1v-1.4c-5-0.8-9-5.2-9-10.5v-0.3c0-5.8,4.8-10.6,10.6-10.6
			c3.7,0,7,1.9,8.9,4.9l-3.8,1.7c-1.2-1.5-3-2.5-5.1-2.5c-3.6,0-6.5,2.9-6.5,6.5V158.6z"/>
		<path class="st23" d="M727.4,158.3v0.3c0,5.8-4.8,10.6-10.6,10.6s-10.6-4.8-10.6-10.6v-0.3c0-5.8,4.8-10.6,10.6-10.6
			S727.4,152.5,727.4,158.3z M710.3,158.3v0.3c0,3.6,2.9,6.5,6.5,6.5c3.6,0,6.5-2.9,6.5-6.5v-0.3c0-3.6-2.9-6.5-6.5-6.5
			C713.2,151.8,710.3,154.8,710.3,158.3z M713.8,145.1c1.2-1.7,1.7-1.3,2.3-0.8c1,0.7,1.9,1.4,3.6,0v-2.7c-1.4,1.7-2,1.2-2.6,0.7
			c-1-0.7-1.9-1.4-3.3,0V145.1z"/>
		<path class="st23" d="M740.8,165.2c2.6,0,5-1.6,6-3.9l3.7,1.7c-1.6,3.7-5.4,6.3-9.7,6.3c-2.2,0-4.3-0.7-6-1.9
			c-1.1-0.8-2.1-1.8-2.9-2.9c-1.1-1.7-1.7-3.7-1.7-5.8v-0.3c0-5.8,4.8-10.6,10.6-10.6c2.2,0,4.3,0.7,6,1.9c1.1,0.8,2.1,1.8,2.9,2.9
			l-3,3l-8.9,8.9C738.7,164.9,739.7,165.2,740.8,165.2z M740.8,151.9c-3.6,0-6.5,2.9-6.5,6.5v0.3c0,1,0.2,1.9,0.6,2.8l8.9-8.9
			C742.9,152.1,741.9,151.9,740.8,151.9z"/>
		<path class="st23" d="M764.9,169.3h-5.2c-3.5,0-6.4-2.9-6.4-6.4h4.1c0,1.3,1,2.3,2.3,2.3h5.2c1.3,0,2.3-1,2.3-2.3s-1-2.3-2.3-2.3
			h-5.2c-1.9,0-3.5-0.8-4.7-2.1c-0.6-0.6-1-1.3-1.3-2c-0.3-0.7-0.4-1.5-0.4-2.3c0-3.5,2.9-6.4,6.4-6.4h5.2c1.5,0,2.8,0.5,3.9,1.3
			c1.5,1.2,2.5,3,2.5,5.1h-2.5h-1.6c0-1.3-1-2.3-2.3-2.3h-5.2c-1.3,0-2.3,1-2.3,2.3c0,1.2,1,2.3,2.3,2.3h5.2c1.5,0,2.8,0.5,3.9,1.3
			c0.3,0.2,0.6,0.5,0.8,0.7c0.5,0.6,1,1.3,1.3,2.1c0.3,0.7,0.4,1.5,0.4,2.3c0,2.1-1,3.9-2.5,5C767.7,168.8,766.3,169.3,764.9,169.3z
			"/>
		<path class="st23" d="M802.5,167c-1.8,1.4-4.1,2.3-6.5,2.3c-5.8,0-10.6-4.8-10.6-10.6v-0.3c0-5.8,4.8-10.6,10.6-10.6
			c2.5,0,4.7,0.8,6.5,2.2v-8.8h4.1v17.2v0.3v10.6h-4.1V167z M802.5,158.3c0-3.6-2.9-6.5-6.5-6.5c-3.6,0-6.5,2.9-6.5,6.5v0.3
			c0,3.6,2.9,6.5,6.5,6.5c3.6,0,6.5-2.9,6.5-6.5V158.3z"/>
		<path class="st23" d="M820,165.2c2.6,0,5-1.6,6-3.9l3.7,1.7c-1.6,3.7-5.4,6.3-9.7,6.3c-2.2,0-4.3-0.7-6-1.9
			c-1.1-0.8-2.1-1.8-2.9-2.9c-1.1-1.7-1.7-3.7-1.7-5.8v-0.3c0-5.8,4.8-10.6,10.6-10.6c2.2,0,4.3,0.7,6,1.9c1.1,0.8,2.1,1.8,2.9,2.9
			l-3,3l-8.9,8.9C817.9,164.9,818.9,165.2,820,165.2z M820,151.9c-3.6,0-6.5,2.9-6.5,6.5v0.3c0,1,0.2,1.9,0.6,2.8l8.9-8.9
			C822.1,152.1,821.1,151.9,820,151.9z"/>
		<path class="st23" d="M843.9,145.2v-2v-2h4.1v2v2v2.6v7.8v13.7h-4.1v-13.7v-7.8V145.2z"/>
		<path class="st23" d="M850.8,141.1h4.1v4h-4.1V141.1z M854.9,147.8h-4.1v21.5h4.1V147.8z"/>
		<path class="st23" d="M865.5,147.8c2.3,0,4.3,1,5.7,2.5c1.4-1.6,3.5-2.5,5.7-2.5c1.3,0,2.6,0.3,3.7,0.9c2.4,1.3,4.1,3.9,4.1,6.8
			v13.7h-4.1v-4.1v-9.6c0-2-1.7-3.7-3.7-3.7c-2,0-3.7,1.7-3.7,3.7v9.6v4.1h-4.1v-4.1v-9.6c0-2-1.7-3.7-3.7-3.7c-2,0-3.7,1.7-3.7,3.7
			v9.6v4.1h-4.1v-13.7v-7.8h4.1v0.9C862.9,148.1,864.1,147.8,865.5,147.8z"/>
		<path class="st23" d="M891.7,150c1.8-1.4,4.1-2.2,6.5-2.2c5.8,0,10.6,4.8,10.6,10.6v0.3c0,5.8-4.8,10.6-10.6,10.6
			c-2.5,0-4.7-0.8-6.5-2.3v8.8h-4.1v-17.2v-0.3v-10.6h4.1V150z M891.7,158.7c0,3.6,2.9,6.5,6.5,6.5s6.5-2.9,6.5-6.5v-0.3
			c0-3.6-2.9-6.5-6.5-6.5s-6.5,2.9-6.5,6.5V158.7z"/>
		<path class="st23" d="M922.2,165.2c2.6,0,5-1.6,6-3.9l3.7,1.7c-1.6,3.7-5.4,6.3-9.7,6.3c-2.2,0-4.3-0.7-6-1.9
			c-1.1-0.8-2.1-1.8-2.9-2.9c-1.1-1.7-1.7-3.7-1.7-5.8v-0.3c0-5.8,4.8-10.6,10.6-10.6c2.2,0,4.3,0.7,6,1.9c1.1,0.8,2.1,1.8,2.9,2.9
			l-3,3l-8.9,8.9C920,164.9,921.1,165.2,922.2,165.2z M922.2,151.9c-3.6,0-6.5,2.9-6.5,6.5v0.3c0,1,0.2,1.9,0.6,2.8l8.9-8.9
			C924.3,152.1,923.3,151.9,922.2,151.9z"/>
		<path class="st23" d="M940.8,165.2h13.8v4.1h-18.1h-1.8v-3.9l0.2-0.2l13.9-13.3h-14v-4.1H953h0.8h0.9v0.9v3.2L940.8,165.2z"/>
		<path class="st23" d="M968,169.3c-5.8,0-10.6-4.8-10.6-10.6v-0.3c0-5.8,4.8-10.6,10.6-10.6c2.5,0,4.7,0.8,6.5,2.2v-2.2h4.1v10.6
			v0.3v10.6h-4.1V167C972.7,168.4,970.4,169.3,968,169.3z M968,151.9c-3.6,0-6.5,2.9-6.5,6.5v0.3c0,3.6,2.9,6.5,6.5,6.5
			c3.6,0,6.5-2.9,6.5-6.5v-0.3C974.5,154.8,971.6,151.9,968,151.9z"/>
	</g>
	<g>
		<linearGradient id="SVGID_1_" gradientUnits="userSpaceOnUse" x1="74.7088" y1="27.9595" x2="108.8067" y2="27.9595">
			<stop  offset="0" style="stop-color:#3162AB"/>
			<stop  offset="1" style="stop-color:#46ADE1"/>
		</linearGradient>
		<polygon class="st3" points="78.2,20.6 149,24.1 74.7,35.4 		"/>
		<linearGradient id="SVGID_2_" gradientUnits="userSpaceOnUse" x1="76.1991" y1="59.022" x2="159.3488" y2="59.022">
			<stop  offset="0" style="stop-color:#46ADE1"/>
			<stop  offset="1" style="stop-color:#3162AB"/>
		</linearGradient>
		<polygon class="st4" points="76.2,37.5 159.3,24.9 154.3,93.2 		"/>
		<linearGradient id="SVGID_3_" gradientUnits="userSpaceOnUse" x1="177.0118" y1="87.9705" x2="177.439" y2="40.3456">
			<stop  offset="0" style="stop-color:#46ADE1"/>
			<stop  offset="1" style="stop-color:#3162AB"/>
		</linearGradient>
		<polygon class="st5" points="161.4,28.1 197.2,106 156.6,94.4 		"/>
		<linearGradient id="SVGID_4_" gradientUnits="userSpaceOnUse" x1="144.3977" y1="135.4385" x2="197.3308" y2="135.4385">
			<stop  offset="0" style="stop-color:#3162AB"/>
			<stop  offset="1" style="stop-color:#46ADE1"/>
		</linearGradient>
		<polygon class="st6" points="156.3,96.8 197.3,108.4 144.4,174.1 		"/>
		<linearGradient id="SVGID_5_" gradientUnits="userSpaceOnUse" x1="62.8883" y1="136.7844" x2="153.8851" y2="136.7844">
			<stop  offset="0" style="stop-color:#3162AB"/>
			<stop  offset="1" style="stop-color:#46ADE1"/>
		</linearGradient>
		<polygon class="st7" points="153.9,97.2 141.7,176.4 62.9,135 		"/>
		<linearGradient id="SVGID_6_" gradientUnits="userSpaceOnUse" x1="66.4099" y1="135.8043" x2="112.5587" y2="68.3522">
			<stop  offset="0" style="stop-color:#46ADE1"/>
			<stop  offset="1" style="stop-color:#3162AB"/>
		</linearGradient>
		<polygon class="st8" points="61.6,133 74.1,38.8 153,95 		"/>
		<linearGradient id="SVGID_7_" gradientUnits="userSpaceOnUse" x1="58.1132" y1="156.3663" x2="103.4237" y2="156.3663">
			<stop  offset="0" style="stop-color:#3162AB"/>
			<stop  offset="1" style="stop-color:#46ADE1"/>
		</linearGradient>
		<polygon class="st9" points="61.1,136.7 136.1,176.1 58.1,163.8 		"/>
		<linearGradient id="SVGID_8_" gradientUnits="userSpaceOnUse" x1="23.5314" y1="126.278" x2="58.9491" y2="126.278">
			<stop  offset="0" style="stop-color:#3162AB"/>
			<stop  offset="1" style="stop-color:#46ADE1"/>
		</linearGradient>
		<polygon class="st10" points="56.1,160.5 58.9,135.2 23.5,92.1 		"/>
		<linearGradient id="SVGID_9_" gradientUnits="userSpaceOnUse" x1="79.0142" y1="54.5507" x2="39.4324" y2="108.4163">
			<stop  offset="0" style="stop-color:#46ADE1"/>
			<stop  offset="1" style="stop-color:#3162AB"/>
		</linearGradient>
		<polygon class="st11" points="59.4,132 71.6,39.6 20,84.1 		"/>
		<linearGradient id="SVGID_10_" gradientUnits="userSpaceOnUse" x1="39.8867" y1="57.3133" x2="74.2461" y2="31.5376">
			<stop  offset="0" style="stop-color:#3162AB"/>
			<stop  offset="1" style="stop-color:#46ADE1"/>
		</linearGradient>
		<polygon class="st12" points="32.2,70.6 75.1,23.4 72.1,36.1 		"/>
	</g>
	<g>
		<g>
			<path class="st2" d="M502.5,60.7c5.4,0,10.5,1.6,14.7,4.5l-7.8,10.6c-2-1.3-4.4-2-6.9-2c-7.1,0-12.9,5.7-12.9,12.8v17.2v22.6v3.4
				h-13.1v-26V86.6V60.7h13.1v3.4C493.4,61.9,497.8,60.7,502.5,60.7z"/>
			<path class="st2" d="M522.2,39.4h13.1v13h-13.1V39.4z M535.3,60.7h-13.1v69.2h13.1V60.7z"/>
			<path class="st2" d="M574.3,116.7c8.5,0,16-5.3,19.2-12.6l12,5.3c-5.3,12-17.3,20.4-31.2,20.4c-7.2,0-13.8-2.3-19.2-6.1
				c-3.6-2.4-6.8-5.7-9.2-9.3c-3.5-5.3-5.5-11.8-5.5-18.7v-1.1c0-18.7,15.3-34,34-34c7.2,0,13.8,2.2,19.3,6c3.6,2.5,6.8,5.7,9.2,9.4
				l-9.7,9.6l-28.6,28.6C567.5,115.8,570.8,116.7,574.3,116.7z M574.3,73.8c-11.4,0-20.9,9.4-20.9,20.9v1.1c0,3.3,0.7,6.3,2.1,9
				l28.6-28.6C581.1,74.7,577.8,73.8,574.3,73.8z"/>
			<path class="st2" d="M640.2,60.7c6.2,0,11.9,1.8,16.7,5.1c7.9,5.3,13.1,14.4,13.1,24.7v39.4h-13.1v-13.1V90.4
				c0-9.2-7.5-16.6-16.7-16.6c-9.1,0-16.6,7.4-16.6,16.6v26.3v13.1h-13.1V90.4V60.7h13.1v5.1C628.3,62.5,634,60.7,640.2,60.7z"/>
			<path class="st2" d="M709.4,60.7v13.1h-10.6v11v20.9c0,6.1,4.9,11.1,11,11.1c2.5,0,4.9-0.9,6.7-2.4l7.7,10.7c-4,3-9,4.8-14.4,4.8
				c-4,0-7.7-1-11-2.7c-7.8-4-13.1-12.1-13.1-21.5V73.8H675V60.7h10.6V46.6h13.1v14.1H709.4z"/>
			<path class="st2" d="M754.1,129.9c-18.7,0-34-15.3-34-34.1v-1.1c0-18.7,15.3-34,34-34c7.9,0,15.1,2.6,20.9,7.2v-7.2h13.1v34v1.1
				v34.1H775v-7.3C769.2,127.2,762,129.9,754.1,129.9z M754.1,73.8c-11.4,0-20.9,9.4-20.9,20.9v1.1c0,11.5,9.4,20.9,20.9,20.9
				c11.5,0,20.9-9.4,20.9-20.9v-1.1C775,83.3,765.6,73.8,754.1,73.8z"/>
			<path class="st2" d="M848.1,122.6c-5.8,4.5-13.1,7.3-20.9,7.3c-18.7,0-34-15.3-34-34.1v-1.1c0-18.7,15.3-34,34-34
				c7.9,0,15.1,2.6,20.9,7.2V39.4h13.1v55.3v1.1v34.1h-13.1V122.6z M848.1,94.7c0-11.5-9.4-20.9-20.9-20.9s-20.9,9.3-20.9,20.9v1.1
				c0,11.5,9.3,20.9,20.9,20.9s20.9-9.4,20.9-20.9V94.7z"/>
			<path class="st2" d="M934.3,94.7v1.1c0,18.8-15.3,34.1-34,34.1c-18.8,0-34.1-15.3-34.1-34.1v-1.1c0-18.7,15.3-34,34.1-34
				C919,60.7,934.3,76,934.3,94.7z M879.4,94.7v1.1c0,11.5,9.4,20.9,20.9,20.9c11.4,0,20.9-9.4,20.9-20.9v-1.1
				c0-11.4-9.4-20.9-20.9-20.9C888.8,73.8,879.4,83.3,879.4,94.7z"/>
			<path class="st2" d="M965.3,60.7c5.4,0,10.5,1.6,14.7,4.5l-7.8,10.6c-2-1.3-4.4-2-6.9-2c-7.1,0-12.9,5.7-12.9,12.8v17.2v22.6v3.4
				h-13.1v-26V86.6V60.7h13.1v3.4C956.2,61.9,960.6,60.7,965.3,60.7z"/>
		</g>
		<g>
			<path class="st2" d="M259.9,114.2c12.2,0,22.9-7.5,27.5-18.1l17.1,7.7c-7.5,17.1-24.8,29.2-44.7,29.2c-10.3,0-19.7-3.2-27.5-8.7
				c-5.2-3.5-9.7-8.2-13.2-13.4c-5.1-7.7-7.9-16.9-7.9-26.8v-1.6c0-26.8,21.9-48.7,48.7-48.7c10.3,0,19.7,3.1,27.7,8.6
				c5.2,3.6,9.7,8.2,13.2,13.5l-13.9,13.8L246,110.7C250.2,112.9,255,114.2,259.9,114.2z M259.9,52.8c-16.4,0-29.9,13.5-29.9,29.9
				v1.6c0,4.7,1,9,3,12.9l40.9-40.9C269.7,54,265,52.8,259.9,52.8z"/>
		</g>
		<g>
			<path class="st2" d="M309.8,39.4h13.1v13h-13.1V39.4z M322.9,60.7h-13.1v69.2h13.1V60.7z"/>
			<path class="st2" d="M327.9,61v-0.3H344l17.9,24.1l17.8-24.1h16.4l-26,35.3l25,33.9h-16.4L361.9,107L345,129.9h-16.3l25-33.9
				L327.9,61z"/>
		</g>
		<g>
			<linearGradient id="SVGID_11_" gradientUnits="userSpaceOnUse" x1="416.1873" y1="63.201" x2="431.5555" y2="63.201">
				<stop  offset="0" style="stop-color:#3162AB"/>
				<stop  offset="1" style="stop-color:#46ADE1"/>
			</linearGradient>
			<polygon class="st13" points="417.7,59.9 449.7,61.5 416.2,66.5 			"/>
			<linearGradient id="SVGID_12_" gradientUnits="userSpaceOnUse" x1="416.859" y1="77.2011" x2="454.3353" y2="77.2011">
				<stop  offset="0" style="stop-color:#46ADE1"/>
				<stop  offset="1" style="stop-color:#3162AB"/>
			</linearGradient>
			<polygon class="st14" points="416.9,67.5 454.3,61.8 452.1,92.6 			"/>
			<linearGradient id="SVGID_13_" gradientUnits="userSpaceOnUse" x1="462.2962" y1="90.2485" x2="462.4887" y2="68.7835">
				<stop  offset="0" style="stop-color:#46ADE1"/>
				<stop  offset="1" style="stop-color:#3162AB"/>
			</linearGradient>
			<polygon class="st15" points="455.3,63.3 471.4,98.4 453.1,93.2 			"/>
			<linearGradient id="SVGID_14_" gradientUnits="userSpaceOnUse" x1="447.5967" y1="111.6427" x2="471.4541" y2="111.6427">
				<stop  offset="0" style="stop-color:#3162AB"/>
				<stop  offset="1" style="stop-color:#46ADE1"/>
			</linearGradient>
			<polygon class="st16" points="453,94.2 471.5,99.5 447.6,129.1 			"/>
			<linearGradient id="SVGID_15_" gradientUnits="userSpaceOnUse" x1="410.8597" y1="112.2493" x2="451.8728" y2="112.2493">
				<stop  offset="0" style="stop-color:#3162AB"/>
				<stop  offset="1" style="stop-color:#46ADE1"/>
			</linearGradient>
			<polygon class="st17" points="451.9,94.4 446.4,130.1 410.9,111.4 			"/>
			<linearGradient id="SVGID_16_" gradientUnits="userSpaceOnUse" x1="412.4469" y1="111.8076" x2="433.2466" y2="81.4063">
				<stop  offset="0" style="stop-color:#46ADE1"/>
				<stop  offset="1" style="stop-color:#3162AB"/>
			</linearGradient>
			<polygon class="st18" points="410.3,110.5 415.9,68.1 451.5,93.4 			"/>
			<linearGradient id="SVGID_17_" gradientUnits="userSpaceOnUse" x1="408.7075" y1="121.0751" x2="429.1294" y2="121.0751">
				<stop  offset="0" style="stop-color:#3162AB"/>
				<stop  offset="1" style="stop-color:#46ADE1"/>
			</linearGradient>
			<polygon class="st19" points="410.1,112.2 443.8,130 408.7,124.4 			"/>
			<linearGradient id="SVGID_18_" gradientUnits="userSpaceOnUse" x1="393.1212" y1="107.514" x2="409.0843" y2="107.514">
				<stop  offset="0" style="stop-color:#3162AB"/>
				<stop  offset="1" style="stop-color:#46ADE1"/>
			</linearGradient>
			<polygon class="st20" points="407.8,122.9 409.1,111.5 393.1,92.1 			"/>
			<linearGradient id="SVGID_19_" gradientUnits="userSpaceOnUse" x1="418.1278" y1="75.1859" x2="400.2879" y2="99.4636">
				<stop  offset="0" style="stop-color:#46ADE1"/>
				<stop  offset="1" style="stop-color:#3162AB"/>
			</linearGradient>
			<polygon class="st21" points="409.3,110.1 414.8,68.5 391.5,88.5 			"/>
			<linearGradient id="SVGID_20_" gradientUnits="userSpaceOnUse" x1="400.4927" y1="76.431" x2="415.9788" y2="64.8136">
				<stop  offset="0" style="stop-color:#3162AB"/>
				<stop  offset="1" style="stop-color:#46ADE1"/>
			</linearGradient>
			<polygon class="st22" points="397,82.4 416.4,61.2 415,66.9 			"/>
		</g>
	</g>
</g>
</svg>
